<?xml version="1.0" encoding="UTF-8"?>
<!DOCTYPE svg PUBLIC "-//W3C//DTD SVG 1.1//EN" "http://www.w3.org/Graphics/SVG/1.1/DTD/svg11.dtd">
<!-- Creator: CorelDRAW X6 -->
<svg xmlns="http://www.w3.org/2000/svg" xml:space="preserve" width="9in" height="9in" version="1.1" style="shape-rendering:geometricPrecision; text-rendering:geometricPrecision; image-rendering:optimizeQuality; fill-rule:evenodd; clip-rule:evenodd"
viewBox="0 0 9000 9000"
 xmlns:xlink="http://www.w3.org/1999/xlink">
 <defs>
  <style type="text/css">
   <![CDATA[
    .fil0 {fill:#0B6EC7;fill-rule:nonzero}
   ]]>
  </style>
 </defs>
 <g id="Layer_x0020_1">
  <metadata id="CorelCorpID_0Corel-Layer"/>
  <path class="fil0" d="M4500 7500c-1654,0 -3000,-1338 -3000,-3000 0,-1654 1346,-3000 3000,-3000 1653,0 3000,1346 3000,3000 0,1662 -1347,3000 -3000,3000zm0 -5859c-1579,0 -2859,1280 -2859,2859 0,1579 1280,2859 2859,2859 1579,0 2858,-1280 2858,-2859 0,-1571 -1280,-2859 -2858,-2859zm2542 3714c-1,3 -6,7 -15,3 -7,-3 -9,-6 -9,-11 0,-5 101,-300 100,-640 -1,-366 -150,-590 -341,-590 -116,0 -199,83 -199,208 0,224 274,241 274,731 0,199 -42,390 -108,598 -308,1039 -1288,1521 -2244,1521 -441,0 -754,-90 -847,-132 -4,-2 -7,-9 -4,-17 2,-6 9,-10 12,-8 38,15 307,99 639,99 366,0 582,-149 582,-333 0,-116 -91,-208 -208,-208 -224,0 -241,282 -723,282 -208,0 -391,-41 -607,-108 -1030,-316 -1522,-1288 -1521,-2252 0,-469 132,-843 134,-847 2,-2 8,-5 15,-2 7,2 9,9 9,11 -12,39 -99,307 -99,639 0,366 150,582 341,582 108,0 200,-83 200,-199 0,-224 -274,-249 -274,-731 0,-208 42,-391 108,-607 316,-1030 1288,-1513 2244,-1521 444,-3 833,129 847,141 3,2 5,8 3,15 -3,8 -8,9 -11,8 -5,-1 -257,-106 -640,-106 -357,0 -581,149 -581,341 0,108 83,199 208,199 225,0 241,-274 723,-274 208,0 391,42 607,108 1039,316 1512,1297 1521,2244 5,485 -132,853 -134,855zm-1429 -714c-282,0 -499,208 -499,457 0,208 125,374 291,374 58,0 116,-33 116,-108 0,-108 -143,-134 -132,-296 7,-107 107,-178 207,-178 199,0 293,193 293,393 -8,308 -235,522 -500,522 -349,0 -573,-333 -573,-690 0,-532 349,-740 532,-789 2,0 478,85 463,-125 -6,-92 -144,-127 -243,-132 -110,-4 -221,35 -221,35 -58,-29 -98,-86 -123,-153 341,-258 582,-507 582,-790 0,-150 -100,-283 -291,-283 -341,0 -598,432 -598,823 0,66 0,133 17,191 -216,158 -377,256 -668,430 0,-36 8,-130 32,-252 100,-108 237,-270 237,-394 0,-58 -33,-108 -100,-108 -166,0 -291,249 -324,424 -75,91 -224,208 -349,208 -100,0 -133,-92 -141,-125 316,-108 706,-540 706,-931 0,-83 -33,-266 -282,-266 -374,0 -690,557 -690,989 -133,0 -183,-141 -183,-249 0,-108 42,-216 42,-249 0,-33 -17,-75 -67,-75 -125,0 -200,166 -200,357 8,266 183,432 416,449 33,158 175,307 349,307 108,0 241,-33 333,-116 -8,58 -17,108 -25,158 -366,191 -632,324 -873,540 -191,175 -299,407 -299,590 0,249 158,482 482,482 382,0 673,-307 814,-731 67,-199 93,-490 110,-756 382,-216 564,-341 763,-482 25,42 50,75 83,100 -174,92 -590,349 -590,956 0,432 291,914 864,914 474,0 798,-390 798,-764 0,-341 -191,-656 -557,-656zm-2285 1163c-125,6 -208,-74 -208,-207 0,-357 495,-698 869,-881 -66,499 -235,1069 -662,1088zm274 -1961c0,-274 271,-796 436,-741 195,65 -162,591 -436,741zm1571 -125c0,-341 231,-672 357,-609 143,72 -107,393 -357,609z"/>
 </g>
</svg>
